<?xml version="1.0" standalone="no"?><!DOCTYPE svg PUBLIC "-//W3C//DTD SVG 1.1//EN" "http://www.w3.org/Graphics/SVG/1.1/DTD/svg11.dtd"><svg t="1629949749920" class="icon" viewBox="0 0 1024 1024" version="1.1" xmlns="http://www.w3.org/2000/svg" p-id="3242" xmlns:xlink="http://www.w3.org/1999/xlink" width="200" height="200"><defs><style type="text/css"></style></defs><path d="M0.308053 882.346667A132.693333 132.693333 0 0 0 128.308053 1024h768a132.693333 132.693333 0 0 0 128-141.653333V360.96H0.308053z m716.8-307.626667a34.986667 34.986667 0 0 1-4.693333-47.786667 27.733333 27.733333 0 0 1 42.666667-5.546666l128 117.76a24.746667 24.746667 0 0 1 12.8 23.893333 189.013333 189.013333 0 0 1-8.106667 29.44l-128 136.106667a28.16 28.16 0 0 1-42.666667 0 34.56 34.56 0 0 1 0-47.786667l102.4-108.373333z m-298.666666 208.213333l128-256a29.013333 29.013333 0 0 1 42.666666-14.933333 35.413333 35.413333 0 0 1 12.8 47.786667l-128 256a36.693333 36.693333 0 0 1-25.6 18.346666 22.186667 22.186667 0 0 1-17.493333-5.546666 37.12 37.12 0 0 1-12.8-45.653334z m-277.333334-147.626666l128-117.76a27.733333 27.733333 0 0 1 42.666667 3.84 36.693333 36.693333 0 0 1 0 42.666666l-4.693333 5.546667-102.4 93.866667 102.4 108.8a34.56 34.56 0 0 1 4.693333 42.666666l-4.693333 5.546667a29.013333 29.013333 0 0 1-42.666667 0l-128-136.533333a36.693333 36.693333 0 0 1-8.106667-30.293334c0-3.413333 3.413333-8.96 12.8-18.346666zM896.308053 0H128.308053a132.693333 132.693333 0 0 0-128 141.653333v142.08h1024V141.653333A131.84 131.84 0 0 0 896.308053 0zM179.508053 189.866667h-17.92A33.28 33.28 0 0 1 128.308053 156.16V128a33.28 33.28 0 0 1 33.28-33.706667h17.92A33.706667 33.706667 0 0 1 213.641387 128v28.586667a33.706667 33.706667 0 0 1-34.133334 33.28z m170.666667 0h-17.066667a33.706667 33.706667 0 0 1-34.133333-33.706667V128a33.706667 33.706667 0 0 1 34.133333-34.133333h17.92A33.28 33.28 0 0 1 384.308053 128v28.586667a33.28 33.28 0 0 1-33.28 33.28z m170.666667 0h-17.92a33.28 33.28 0 0 1-33.28-33.706667V128a33.28 33.28 0 0 1 33.28-33.706667h17.92A33.28 33.28 0 0 1 554.97472 128v28.586667a33.28 33.28 0 0 1-34.56 33.28z" p-id="3243" fill="#6885DC"></path></svg>