<?xml version="1.0" standalone="no"?><!DOCTYPE svg PUBLIC "-//W3C//DTD SVG 1.1//EN" "http://www.w3.org/Graphics/SVG/1.1/DTD/svg11.dtd"><svg t="1629949396313" class="icon" viewBox="0 0 1024 1024" version="1.1" xmlns="http://www.w3.org/2000/svg" p-id="1401" xmlns:xlink="http://www.w3.org/1999/xlink" width="200" height="200"><defs><style type="text/css"></style></defs><path d="M167.936 681.984l29.696 30.72-48.128 21.504 18.432-52.224z" fill="#B1B0B1" p-id="1402"></path><path d="M323.584 778.24l414.72-474.112 133.12 110.592-418.816 481.28L323.584 778.24z" fill="#FBE2B2" p-id="1403"></path><path d="M203.776 566.272l50.176 21.504 34.816 27.648 29.696 50.176 315.392-361.472-48.128-11.264L542.72 256l-29.696-52.224-309.248 362.496z" fill="#BCE2EC" p-id="1404"></path><path d="M203.776 566.272l-25.6 111.616 31.744 33.792 109.568-43.008-24.576-39.936-41.984-39.936-49.152-22.528zM516.096 196.608l22.528 51.2 41.984 35.84 53.248 21.504 31.744-30.72-24.576-47.104-47.104-36.864-53.248-20.48-24.576 26.624z" fill="#FBF1D7" p-id="1405"></path><path d="M450.56 904.192c-6.144 0-13.312-2.048-18.432-7.168l-108.544-94.208c-12.288-10.24-13.312-28.672-3.072-40.96l400.384-460.8c10.24-12.288 28.672-13.312 40.96-3.072L870.4 393.216c12.288 10.24 13.312 28.672 3.072 40.96l-400.384 460.8c-5.12 6.144-12.288 9.216-19.456 10.24-1.024-1.024-2.048-1.024-3.072-1.024z m1.024-25.6c1.024 0 1.024 0 2.048-1.024l400.384-460.8c1.024-1.024 1.024-3.072 0-4.096l-108.544-94.208c-1.024-1.024-3.072-1.024-4.096 0l-21.504 25.6 55.296 48.128c5.12 5.12 6.144 13.312 1.024 18.432-2.048 3.072-6.144 4.096-9.216 4.096-3.072 0-7.168-1.024-9.216-3.072l-55.296-48.128-15.36 17.408 31.744 27.648c5.12 5.12 6.144 13.312 1.024 18.432-3.072 3.072-6.144 5.12-10.24 4.096-3.072 0-6.144-1.024-8.192-3.072l-31.744-27.648-12.288 14.336 31.744 27.648c5.12 5.12 6.144 13.312 1.024 18.432-3.072 3.072-6.144 5.12-10.24 4.096-3.072 0-6.144-1.024-8.192-3.072l-31.744-27.648-15.36 18.432 55.296 48.128c5.12 5.12 6.144 13.312 1.024 18.432-2.048 3.072-6.144 4.096-9.216 4.096-3.072 0-7.168-1.024-9.216-3.072l-55.296-48.128-15.36 17.408 31.744 27.648c5.12 5.12 6.144 13.312 1.024 18.432-3.072 3.072-6.144 5.12-10.24 4.096-3.072 0-6.144-1.024-8.192-3.072l-31.744-27.648-13.312 14.336L593.92 552.96c5.12 5.12 6.144 13.312 1.024 18.432-3.072 3.072-6.144 5.12-10.24 4.096-3.072 0-6.144-1.024-8.192-3.072l-31.744-27.648-12.288 14.336 55.296 48.128c5.12 5.12 6.144 13.312 1.024 18.432-2.048 3.072-6.144 4.096-9.216 4.096-3.072 0-7.168-1.024-9.216-3.072l-55.296-48.128-15.36 17.408 31.744 27.648c5.12 5.12 6.144 13.312 1.024 18.432-3.072 3.072-6.144 5.12-10.24 4.096-3.072 0-6.144-1.024-8.192-3.072l-31.744-27.648-12.288 14.336 31.744 27.648c5.12 5.12 6.144 13.312 1.024 18.432-3.072 3.072-6.144 5.12-10.24 4.096-3.072 0-6.144-1.024-8.192-3.072l-31.744-27.648-14.336 17.408 55.296 48.128c5.12 5.12 6.144 13.312 1.024 18.432-2.048 3.072-6.144 4.096-9.216 4.096-3.072 0-7.168-1.024-9.216-3.072L420.864 686.08l-15.36 17.408 31.744 27.648c5.12 5.12 6.144 13.312 1.024 18.432-3.072 3.072-6.144 5.12-10.24 4.096-3.072 0-6.144-1.024-8.192-3.072l-31.744-27.648-12.288 14.336 31.744 27.648c5.12 5.12 6.144 13.312 1.024 18.432-3.072 3.072-6.144 5.12-10.24 4.096-3.072 0-6.144-1.024-8.192-3.072L358.4 759.808l-16.384 19.456c-1.024 1.024-1.024 3.072 0 4.096L450.56 877.568l1.024 1.024zM155.648 751.616h-4.096c-7.168-1.024-12.288-8.192-10.24-16.384l48.128-171.008 2.048-9.216 314.368-363.52 1.024-1.024v-1.024l1.024-1.024 23.552-26.624c3.072-4.096 9.216-5.12 13.312-4.096l50.176 16.384h1.024l3.072 2.048h1.024l46.08 38.912 2.048 3.072v1.024l25.6 49.152c2.048 5.12 2.048 10.24-2.048 14.336l-25.6 29.696-312.32 364.544-1.024 1.024-3.072 2.048-1.024 1.024-168.96 70.656h-4.096z m20.48-36.864l12.288-5.12-8.192-7.168-4.096 12.288z m39.936-17.408l87.04-35.84-18.432-28.672-41.984-35.84-30.72-14.336-25.6 90.112 29.696 24.576z m-6.144-33.792c-2.048 0-3.072 0-5.12-1.024l-1.024-1.024c-6.144-3.072-10.24-10.24-7.168-16.384l10.24-26.624c3.072-6.144 10.24-10.24 16.384-7.168l1.024 1.024c6.144 3.072 10.24 10.24 7.168 16.384l-10.24 26.624c-1.024 5.12-6.144 8.192-11.264 8.192zM324.608 645.12L614.4 310.272l-26.624-9.216-277.504 321.536 14.336 22.528z m-33.792-43.008l273.408-316.416-21.504-18.432-272.384 317.44 20.48 17.408z m-44.032-32.768l278.528-321.536-11.264-22.528L225.28 559.104l21.504 10.24z m386.048-280.576l13.312-15.36-20.48-37.888-40.96-35.84-37.888-12.288-13.312 16.384 18.432 35.84 40.96 35.84 39.936 13.312zM604.16 259.072c-3.072 0-6.144-1.024-9.216-3.072l-24.576-20.48c-5.12-5.12-6.144-13.312-1.024-18.432l1.024-1.024c5.12-5.12 12.288-6.144 18.432-1.024l24.576 21.504c5.12 5.12 6.144 13.312 1.024 18.432l-1.024 1.024c-3.072 2.048-6.144 3.072-9.216 3.072z" fill="#55545F" p-id="1406"></path></svg>