<?xml version="1.0" standalone="no"?><!DOCTYPE svg PUBLIC "-//W3C//DTD SVG 1.1//EN" "http://www.w3.org/Graphics/SVG/1.1/DTD/svg11.dtd"><svg t="1629949894035" class="icon" viewBox="0 0 1024 1024" version="1.1" xmlns="http://www.w3.org/2000/svg" p-id="16436" xmlns:xlink="http://www.w3.org/1999/xlink" width="200" height="200"><defs><style type="text/css"></style></defs><path d="M685.61139 902.508475H26.033898V0.052068h659.577492A52.015729 52.015729 0 0 1 737.627119 52.067797v798.424949A52.015729 52.015729 0 0 1 685.61139 902.508475z" fill="#556080" p-id="16437"></path><path d="M546.711864 0.052068h86.779661V902.508475h-86.779661z" fill="#D75A4A" p-id="16438"></path><path d="M26.033898 295.224407h520.677966v312.406779h-520.677966zM633.491525 295.224407h104.135594v312.406779h-104.135594z" fill="#424A60" p-id="16439"></path><path d="M199.59322 989.288136l-52.067796-34.711865-52.067797 34.711865v-86.779661h104.135593z" fill="#EBBA16" p-id="16440"></path><path d="M859.118644 121.491525h69.423729v69.423729h-69.423729z" fill="#E0E1E2" p-id="16441"></path><path d="M928.542373 0h-34.972204a34.538305 34.538305 0 0 0-19.265084 5.883661 34.434169 34.434169 0 0 0-15.186441 28.567864V121.491525h69.423729V0zM963.514576 0z" fill="#D75A4A" p-id="16442"></path><path d="M928.542373 190.915254h69.423729v659.525424h-69.423729z" fill="#DB7B1B" p-id="16443"></path><path d="M928.542373 121.491525h69.423729v69.423729h-69.423729z" fill="#C4C4C4" p-id="16444"></path><path d="M997.966102 34.451525z" fill="#D75A4A" p-id="16445"></path><path d="M997.966102 121.491525V34.451525A34.434169 34.434169 0 0 0 963.514576 0H928.542373v121.491525h69.423729z" fill="#B74C44" p-id="16446"></path><path d="M997.966102 850.440678h-138.847458l69.423729 121.491525z" fill="#EBD6BD" p-id="16447"></path><path d="M911.186441 1006.644068a17.355932 17.355932 0 1 0 34.711864 0v-69.423729h-34.711864v69.423729z" fill="#4C4C4C" p-id="16448"></path><path d="M859.118644 190.915254h69.423729v659.525424h-69.423729z" fill="#ED8A19" p-id="16449"></path></svg>